# xmcd
#
# Track frame offsets:
#	150
#	17751
#	37143
#	56061
#	73831
#	89517
#	110963
#	129536
#	147249
#	168479
#	171172
#
# Disc length: 2504 seconds
#
# Revision: 1
# Processed by: cddbd v1.4PL0 Copyright (c) Steve Scherf et al.
# Submitted via: audiograbber 1.82.01
#
DISCID=a909c60b
DTITLE=Julie Ragins - Soul Refill
DYEAR=1998
DGENRE=Soul
TTITLE0=Not Me
TTITLE1=Soul Refill
TTITLE2=The Best Part
TTITLE3=Little Things
TTITLE4=You Better Not Mess With The Mother
TTITLE5=Searching
TTITLE6=You Were Always There
TTITLE7=Listen To Your Heart
TTITLE8=Seven Fairway Drive
TTITLE9=Yankee Doodle
TTITLE10=Where Do We Go From Here
EXTD=
EXTT0=
EXTT1=
EXTT2=
EXTT3=
EXTT4=
EXTT5=
EXTT6=
EXTT7=
EXTT8=
EXTT9=
EXTT10=
PLAYORDER=
